# xmcd CD database file
#
# Track frame offsets:
#	150
#	21790
#	43350
#	64990
#
# Disc length: 1152 seconds
#
# Revision: 0
# Processed by: cddbd v1.5.1PL0 Copyright (c) Steve Scherf et al.
# Submitted via: CDex 1.60beta1
#
DISCID=35047e04
DTITLE=angela - DEAD SET
DYEAR=2005
DGENRE=JPop
TTITLE0=DEAD SET
TTITLE1=花のように
TTITLE2=DEAD SET (Off Vocal Ver)
TTITLE3=花のように (Off Vocal Ver)
EXTD=YEAR: 2005
EXTT0=
EXTT1=
EXTT2=
EXTT3=
PLAYORDER=
